<svg width="39" height="39" viewBox="0 0 39 39" fill="none" xmlns="http://www.w3.org/2000/svg">
<path d="M14.1814 4.57835C15.6017 4.08689 17.1667 4.76104 17.6762 6.08346C18.0662 7.09593 17.724 8.19401 16.9061 8.87423L17.3533 10.0783L18.0612 10.8904C18.2227 11.0762 18.4672 11.1656 18.7118 11.1365C19.3713 11.0578 20.0269 11.0569 20.6692 11.1262C20.8869 11.1499 21.1031 11.0791 21.2588 10.9285L21.766 10.4402L22.1374 9.35462C21.8168 8.91767 21.7068 8.34001 21.8942 7.7921C22.2122 6.86328 23.2595 6.3861 24.1937 6.76992C24.9984 7.10016 25.4386 7.99109 25.2061 8.81807C25.0585 9.34481 24.6815 9.73847 24.2165 9.93238L23.8052 11.1354L23.9022 11.7993C23.9355 12.0275 24.0723 12.2272 24.2716 12.3473C24.9416 12.7532 25.5573 13.2488 26.0984 13.8212C26.2802 14.0138 26.5508 14.097 26.8104 14.0458L28.1466 13.783L29.6544 12.9542C29.6597 12.2151 30.0544 11.5018 30.752 11.1183C31.8066 10.5389 33.1461 10.935 33.7127 12.0048C34.2242 12.9699 33.9092 14.18 32.9906 14.7702C32.2733 15.2302 31.396 15.2104 30.7176 14.8134L29.2008 15.6465L28.3553 16.5407C28.1283 16.7805 28.0483 17.1206 28.1363 17.4395C28.1369 17.4413 28.1372 17.4426 28.1377 17.4445C28.2882 17.994 28.3803 18.5461 28.4195 19.0932C28.4422 19.4191 28.6286 19.7128 28.9193 19.8695L30.0289 20.4672L32.2254 20.8863C32.6112 20.5522 33.1437 20.3918 33.6888 20.4952C34.666 20.682 35.298 21.6458 35.051 22.6132C34.8386 23.4417 34.0195 23.991 33.1606 23.8796C32.5749 23.8036 32.101 23.4519 31.8456 22.9803L29.6349 22.5589L28.2727 22.7195C28.0216 22.7496 27.8028 22.9052 27.7011 23.1339C27.2964 24.0363 26.7366 24.8656 26.0444 25.5808C25.8724 25.7585 25.8085 26.0136 25.8719 26.2527L26.215 27.5548L27.0554 28.8585C27.9747 28.7245 28.9331 29.1222 29.4668 29.9502C30.1842 31.0627 29.8655 32.5315 28.757 33.2442C27.6492 33.9566 26.1373 33.6401 25.4059 32.5415C24.8938 31.7724 24.885 30.8255 25.2955 30.0758L24.4033 28.6921L23.3089 27.7977C23.1468 27.6645 22.9265 27.6287 22.7295 27.6978C22.5109 27.7746 22.2879 27.8432 22.0599 27.903C20.8208 28.2278 19.5704 28.2661 18.3804 28.0611C18.2059 28.0315 18.0278 28.0802 17.8947 28.1945L17.3108 28.6976L16.8788 29.7606C17.175 30.2148 17.2523 30.797 17.0345 31.3333C16.6646 32.2434 15.5917 32.662 14.6804 32.2278C13.8956 31.8539 13.5056 30.9404 13.784 30.1277C13.9614 29.61 14.3592 29.2378 14.8347 29.0701L15.3132 27.8918L15.2201 26.8554C14.3482 26.3119 13.5715 25.6155 12.9355 24.7934L11.4478 24.9343L10.0571 25.6132C10.0693 26.5403 9.59145 27.4208 8.74889 27.845C7.55834 28.4439 6.09163 27.9055 5.47329 26.6419C4.85512 25.3789 5.31829 23.8695 6.50884 23.2706C7.39978 22.8224 8.44476 23.0109 9.17359 23.6639L10.4851 23.0232L11.3935 22.0561C11.4529 21.9927 11.4746 21.9036 11.4517 21.82L11.4514 21.8188C11.0248 20.2612 11.0625 18.6883 11.4804 17.244C11.5028 17.1647 11.4855 17.0791 11.4315 17.0158L10.6418 16.0812L8.94428 15.1934C8.47823 15.3957 7.92489 15.3933 7.43742 15.1381C6.55678 14.677 6.23631 13.5763 6.75745 12.7248C7.21497 11.9782 8.19387 11.6973 8.99083 12.0834C9.50669 12.3332 9.84049 12.7984 9.94043 13.312L11.638 14.1998L12.8445 14.3164C12.9283 14.3247 13.0097 14.2899 13.0627 14.2255C13.6075 13.557 14.2567 12.9674 14.9949 12.4844C15.1974 12.3513 15.3228 12.1299 15.3252 11.8883L15.334 10.8022L14.857 9.5191C13.8318 9.44253 12.9026 8.82384 12.5319 7.86217C12.0224 6.53975 12.761 5.06919 14.1814 4.57835Z" fill="#EC5863"/>
<path d="M25.9724 18.0111C25.0459 14.6284 21.5289 12.6113 18.1168 13.5058C14.7047 14.4003 12.6897 17.8676 13.6162 21.2503C14.5426 24.633 18.0597 26.6501 21.4717 25.7556C24.8838 24.8611 26.8988 21.3938 25.9724 18.0111Z" fill="#F58A97"/>
<path d="M20.9513 23.8809C17.8537 24.6958 14.6734 23.1199 13.4172 20.3008C13.4532 20.6175 13.5139 20.9355 13.6004 21.2527C14.5233 24.6341 18.0423 26.6463 21.4606 25.7471C24.8789 24.8478 26.9017 21.3778 25.9789 17.9964C25.8923 17.6791 25.7829 17.374 25.6528 17.0821C26.0005 20.1401 24.0488 23.0661 20.9513 23.8809Z" fill="#F07281"/>
<path d="M11.3198 32.8871C11.0564 31.9242 10.0548 31.3504 9.08274 31.6055C8.11068 31.8606 7.53623 32.848 7.79966 33.8109C8.06309 34.7738 9.06465 35.3476 10.0367 35.0925C11.0088 34.8374 11.5832 33.85 11.3198 32.8871Z" fill="#EB5569"/>
<path d="M34.1078 27.376C33.9338 26.74 33.2722 26.361 32.6302 26.5295C31.9881 26.698 31.6087 27.3501 31.7827 27.9862C31.9567 28.6222 32.6182 29.0012 33.2603 28.8327C33.9023 28.6642 34.2818 28.012 34.1078 27.376Z" fill="#EB5569"/>
<path d="M30.8387 5.63224C30.5825 4.69543 29.6081 4.1372 28.6624 4.38539C27.7166 4.63358 27.1578 5.5942 27.4141 6.531C27.6703 7.46781 28.6447 8.02604 29.5905 7.77785C30.5362 7.52966 31.095 6.56904 30.8387 5.63224Z" fill="#EB5569"/>
<path d="M20.1916 21.538C19.9527 20.6646 19.0443 20.1441 18.1626 20.3755C17.2809 20.6069 16.7598 21.5025 16.9988 22.3759C17.2377 23.2493 18.1462 23.7697 19.0278 23.5383C19.9095 23.307 20.4306 22.4114 20.1916 21.538Z" fill="#EB5569"/>
<path d="M24.3082 19.0923C24.1455 18.4979 23.5272 18.1436 22.9271 18.3011C22.327 18.4586 21.9723 19.0682 22.1349 19.6627C22.2976 20.2572 22.9159 20.6114 23.516 20.4539C24.1162 20.2964 24.4708 19.6868 24.3082 19.0923Z" fill="#EB5569"/>
<path d="M19.9547 16.6284C19.8182 16.1294 19.2992 15.832 18.7956 15.9642C18.2919 16.0963 17.9943 16.608 18.1308 17.1071C18.2673 17.6061 18.7863 17.9035 19.2899 17.7713C19.7936 17.6391 20.0912 17.1274 19.9547 16.6284Z" fill="#EB5569"/>
</svg>
